<mxfile host="Electron" modified="2024-04-26T19:49:08.385Z" agent="Mozilla/5.0 (X11; Linux x86_64) AppleWebKit/537.36 (KHTML, like Gecko) draw.io/24.2.5 Chrome/120.0.6099.109 Electron/28.1.0 Safari/537.36" etag="EpujgFKcZKRa8MBdy4kc" version="24.2.5" type="device">
  <diagram name="Page-1" id="lWNguFLB6w7WDzoqWuzC">
    <mxGraphModel dx="482" dy="288" grid="1" gridSize="10" guides="1" tooltips="1" connect="1" arrows="1" fold="1" page="1" pageScale="1" pageWidth="850" pageHeight="1100" math="0" shadow="0">
      <root>
        <mxCell id="0" />
        <mxCell id="1" parent="0" />
        <mxCell id="5RoPjCUc7wu4f7_gC1kw-3" value="A" style="rounded=0;whiteSpace=wrap;html=1;fillColor=#d5e8d4;strokeColor=#82b366;" parent="1" vertex="1">
          <mxGeometry x="40" y="40" width="20" height="20" as="geometry" />
        </mxCell>
        <mxCell id="5RoPjCUc7wu4f7_gC1kw-6" value="B" style="rounded=0;whiteSpace=wrap;html=1;fillColor=#d5e8d4;strokeColor=#82b366;" parent="1" vertex="1">
          <mxGeometry x="60" y="40" width="20" height="20" as="geometry" />
        </mxCell>
        <mxCell id="5RoPjCUc7wu4f7_gC1kw-14" value="C" style="rounded=0;whiteSpace=wrap;html=1;fillColor=#d5e8d4;strokeColor=#82b366;" parent="1" vertex="1">
          <mxGeometry x="80" y="40" width="20" height="20" as="geometry" />
        </mxCell>
        <mxCell id="5RoPjCUc7wu4f7_gC1kw-28" value="A" style="rounded=0;whiteSpace=wrap;html=1;fillColor=#d5e8d4;strokeColor=#82b366;" parent="1" vertex="1">
          <mxGeometry x="40" y="100" width="20" height="20" as="geometry" />
        </mxCell>
        <mxCell id="5RoPjCUc7wu4f7_gC1kw-29" value="B" style="rounded=0;whiteSpace=wrap;html=1;fillColor=#d5e8d4;strokeColor=#82b366;" parent="1" vertex="1">
          <mxGeometry x="60" y="100" width="20" height="20" as="geometry" />
        </mxCell>
        <mxCell id="5RoPjCUc7wu4f7_gC1kw-30" value="C" style="rounded=0;whiteSpace=wrap;html=1;fillColor=#d5e8d4;strokeColor=#82b366;" parent="1" vertex="1">
          <mxGeometry x="80" y="100" width="20" height="20" as="geometry" />
        </mxCell>
        <mxCell id="5RoPjCUc7wu4f7_gC1kw-31" value="&lt;b&gt;0&lt;/b&gt;" style="rounded=0;whiteSpace=wrap;html=1;fillStyle=solid;fillColor=#CCCCCC;" parent="1" vertex="1">
          <mxGeometry x="120" y="100" width="20" height="20" as="geometry" />
        </mxCell>
        <mxCell id="5RoPjCUc7wu4f7_gC1kw-32" value="-4" style="rounded=0;whiteSpace=wrap;html=1;fillColor=#d5e8d4;strokeColor=#82b366;" parent="1" vertex="1">
          <mxGeometry x="100" y="100" width="20" height="20" as="geometry" />
        </mxCell>
        <mxCell id="5RoPjCUc7wu4f7_gC1kw-33" value="" style="endArrow=classic;html=1;rounded=0;" parent="1" edge="1">
          <mxGeometry width="50" height="50" relative="1" as="geometry">
            <mxPoint x="60" y="70" as="sourcePoint" />
            <mxPoint x="60" y="90" as="targetPoint" />
          </mxGeometry>
        </mxCell>
        <mxCell id="5RoPjCUc7wu4f7_gC1kw-34" value="0" style="rounded=0;whiteSpace=wrap;html=1;fillColor=#d5e8d4;strokeColor=#82b366;" parent="1" vertex="1">
          <mxGeometry x="280" y="40" width="20" height="20" as="geometry" />
        </mxCell>
        <mxCell id="5RoPjCUc7wu4f7_gC1kw-35" value="B" style="rounded=0;whiteSpace=wrap;html=1;fillColor=#d5e8d4;strokeColor=#82b366;" parent="1" vertex="1">
          <mxGeometry x="300" y="40" width="20" height="20" as="geometry" />
        </mxCell>
        <mxCell id="5RoPjCUc7wu4f7_gC1kw-36" value="0" style="rounded=0;whiteSpace=wrap;html=1;fillColor=#d5e8d4;strokeColor=#82b366;" parent="1" vertex="1">
          <mxGeometry x="320" y="40" width="20" height="20" as="geometry" />
        </mxCell>
        <mxCell id="5RoPjCUc7wu4f7_gC1kw-37" value="-1" style="rounded=0;whiteSpace=wrap;html=1;fillColor=#d5e8d4;strokeColor=#82b366;" parent="1" vertex="1">
          <mxGeometry x="280" y="100" width="20" height="20" as="geometry" />
        </mxCell>
        <mxCell id="5RoPjCUc7wu4f7_gC1kw-38" value="B" style="rounded=0;whiteSpace=wrap;html=1;fillColor=#d5e8d4;strokeColor=#82b366;" parent="1" vertex="1">
          <mxGeometry x="300" y="100" width="20" height="20" as="geometry" />
        </mxCell>
        <mxCell id="5RoPjCUc7wu4f7_gC1kw-39" value="2" style="rounded=0;whiteSpace=wrap;html=1;fillColor=#d5e8d4;strokeColor=#82b366;" parent="1" vertex="1">
          <mxGeometry x="320" y="100" width="20" height="20" as="geometry" />
        </mxCell>
        <mxCell id="5RoPjCUc7wu4f7_gC1kw-40" value="&lt;b&gt;0&lt;/b&gt;" style="rounded=0;whiteSpace=wrap;html=1;fillStyle=solid;fillColor=#CCCCCC;" parent="1" vertex="1">
          <mxGeometry x="360" y="100" width="20" height="20" as="geometry" />
        </mxCell>
        <mxCell id="5RoPjCUc7wu4f7_gC1kw-41" value="1" style="rounded=0;whiteSpace=wrap;html=1;fillColor=#d5e8d4;strokeColor=#82b366;" parent="1" vertex="1">
          <mxGeometry x="340" y="100" width="20" height="20" as="geometry" />
        </mxCell>
        <mxCell id="5RoPjCUc7wu4f7_gC1kw-42" value="" style="endArrow=classic;html=1;rounded=0;" parent="1" edge="1">
          <mxGeometry width="50" height="50" relative="1" as="geometry">
            <mxPoint x="300" y="70" as="sourcePoint" />
            <mxPoint x="300" y="90" as="targetPoint" />
          </mxGeometry>
        </mxCell>
        <mxCell id="5RoPjCUc7wu4f7_gC1kw-43" value="0" style="rounded=0;whiteSpace=wrap;html=1;fillColor=#d5e8d4;strokeColor=#82b366;" parent="1" vertex="1">
          <mxGeometry x="160" y="40" width="20" height="20" as="geometry" />
        </mxCell>
        <mxCell id="5RoPjCUc7wu4f7_gC1kw-46" value="-1" style="rounded=0;whiteSpace=wrap;html=1;fillColor=#d5e8d4;strokeColor=#82b366;" parent="1" vertex="1">
          <mxGeometry x="160" y="100" width="20" height="20" as="geometry" />
        </mxCell>
        <mxCell id="5RoPjCUc7wu4f7_gC1kw-49" value="&lt;b&gt;0&lt;/b&gt;" style="rounded=0;whiteSpace=wrap;html=1;fillStyle=solid;fillColor=#CCCCCC;" parent="1" vertex="1">
          <mxGeometry x="200" y="100" width="20" height="20" as="geometry" />
        </mxCell>
        <mxCell id="5RoPjCUc7wu4f7_gC1kw-50" value="1" style="rounded=0;whiteSpace=wrap;html=1;fillColor=#d5e8d4;strokeColor=#82b366;" parent="1" vertex="1">
          <mxGeometry x="180" y="100" width="20" height="20" as="geometry" />
        </mxCell>
        <mxCell id="5RoPjCUc7wu4f7_gC1kw-51" value="" style="endArrow=classic;html=1;rounded=0;" parent="1" edge="1">
          <mxGeometry width="50" height="50" relative="1" as="geometry">
            <mxPoint x="180" y="70" as="sourcePoint" />
            <mxPoint x="180" y="90" as="targetPoint" />
          </mxGeometry>
        </mxCell>
        <mxCell id="5RoPjCUc7wu4f7_gC1kw-52" value="A" style="rounded=0;whiteSpace=wrap;html=1;fillColor=#d5e8d4;strokeColor=#82b366;" parent="1" vertex="1">
          <mxGeometry x="40" y="260" width="20" height="20" as="geometry" />
        </mxCell>
        <mxCell id="5RoPjCUc7wu4f7_gC1kw-53" value="a" style="rounded=0;whiteSpace=wrap;html=1;fillColor=#f8cecc;strokeColor=#b85450;" parent="1" vertex="1">
          <mxGeometry x="60" y="240" width="20" height="20" as="geometry" />
        </mxCell>
        <mxCell id="5RoPjCUc7wu4f7_gC1kw-54" value="&lt;b&gt;0&lt;/b&gt;" style="rounded=0;whiteSpace=wrap;html=1;fillStyle=solid;fillColor=#CCCCCC;" parent="1" vertex="1">
          <mxGeometry x="100" y="240" width="20" height="20" as="geometry" />
        </mxCell>
        <mxCell id="5RoPjCUc7wu4f7_gC1kw-55" value="B" style="rounded=0;whiteSpace=wrap;html=1;fillColor=#d5e8d4;strokeColor=#82b366;" parent="1" vertex="1">
          <mxGeometry x="120" y="260" width="20" height="20" as="geometry" />
        </mxCell>
        <mxCell id="5RoPjCUc7wu4f7_gC1kw-56" value="-2" style="rounded=0;whiteSpace=wrap;html=1;fillColor=#f8cecc;strokeColor=#b85450;" parent="1" vertex="1">
          <mxGeometry x="80" y="240" width="20" height="20" as="geometry" />
        </mxCell>
        <mxCell id="5RoPjCUc7wu4f7_gC1kw-58" value="&lt;b&gt;0&lt;/b&gt;" style="rounded=0;whiteSpace=wrap;html=1;fillStyle=solid;fillColor=#CCCCCC;" parent="1" vertex="1">
          <mxGeometry x="160" y="260" width="20" height="20" as="geometry" />
        </mxCell>
        <mxCell id="5RoPjCUc7wu4f7_gC1kw-59" value="-3" style="rounded=0;whiteSpace=wrap;html=1;fillColor=#d5e8d4;strokeColor=#82b366;" parent="1" vertex="1">
          <mxGeometry x="140" y="260" width="20" height="20" as="geometry" />
        </mxCell>
        <mxCell id="5RoPjCUc7wu4f7_gC1kw-60" value="A" style="rounded=0;whiteSpace=wrap;html=1;fillColor=#d5e8d4;strokeColor=#82b366;" parent="1" vertex="1">
          <mxGeometry x="40" y="180" width="20" height="20" as="geometry" />
        </mxCell>
        <mxCell id="5RoPjCUc7wu4f7_gC1kw-61" value="a" style="rounded=0;whiteSpace=wrap;html=1;fillColor=#f8cecc;strokeColor=#b85450;" parent="1" vertex="1">
          <mxGeometry x="60" y="160" width="20" height="20" as="geometry" />
        </mxCell>
        <mxCell id="5RoPjCUc7wu4f7_gC1kw-63" value="B" style="rounded=0;whiteSpace=wrap;html=1;fillColor=#d5e8d4;strokeColor=#82b366;" parent="1" vertex="1">
          <mxGeometry x="80" y="180" width="20" height="20" as="geometry" />
        </mxCell>
        <mxCell id="5RoPjCUc7wu4f7_gC1kw-67" value="" style="endArrow=classic;html=1;rounded=0;" parent="1" edge="1">
          <mxGeometry width="50" height="50" relative="1" as="geometry">
            <mxPoint x="60" y="210" as="sourcePoint" />
            <mxPoint x="60" y="230" as="targetPoint" />
          </mxGeometry>
        </mxCell>
        <mxCell id="5RoPjCUc7wu4f7_gC1kw-68" value="A" style="rounded=0;whiteSpace=wrap;html=1;fillColor=#d5e8d4;strokeColor=#82b366;" parent="1" vertex="1">
          <mxGeometry x="240" y="260" width="20" height="20" as="geometry" />
        </mxCell>
        <mxCell id="5RoPjCUc7wu4f7_gC1kw-70" value="&lt;b&gt;0&lt;/b&gt;" style="rounded=0;whiteSpace=wrap;html=1;fillStyle=solid;fillColor=#CCCCCC;" parent="1" vertex="1">
          <mxGeometry x="280" y="240" width="20" height="20" as="geometry" />
        </mxCell>
        <mxCell id="5RoPjCUc7wu4f7_gC1kw-71" value="B" style="rounded=0;whiteSpace=wrap;html=1;fillColor=#d5e8d4;strokeColor=#82b366;" parent="1" vertex="1">
          <mxGeometry x="300" y="260" width="20" height="20" as="geometry" />
        </mxCell>
        <mxCell id="5RoPjCUc7wu4f7_gC1kw-72" value="-1" style="rounded=0;whiteSpace=wrap;html=1;fillColor=#f8cecc;strokeColor=#b85450;" parent="1" vertex="1">
          <mxGeometry x="260" y="240" width="20" height="20" as="geometry" />
        </mxCell>
        <mxCell id="5RoPjCUc7wu4f7_gC1kw-73" value="&lt;b&gt;0&lt;/b&gt;" style="rounded=0;whiteSpace=wrap;html=1;fillStyle=solid;fillColor=#CCCCCC;" parent="1" vertex="1">
          <mxGeometry x="340" y="260" width="20" height="20" as="geometry" />
        </mxCell>
        <mxCell id="5RoPjCUc7wu4f7_gC1kw-74" value="-3" style="rounded=0;whiteSpace=wrap;html=1;fillColor=#d5e8d4;strokeColor=#82b366;" parent="1" vertex="1">
          <mxGeometry x="320" y="260" width="20" height="20" as="geometry" />
        </mxCell>
        <mxCell id="5RoPjCUc7wu4f7_gC1kw-75" value="A" style="rounded=0;whiteSpace=wrap;html=1;fillColor=#d5e8d4;strokeColor=#82b366;" parent="1" vertex="1">
          <mxGeometry x="240" y="180" width="20" height="20" as="geometry" />
        </mxCell>
        <mxCell id="5RoPjCUc7wu4f7_gC1kw-77" value="B" style="rounded=0;whiteSpace=wrap;html=1;fillColor=#d5e8d4;strokeColor=#82b366;" parent="1" vertex="1">
          <mxGeometry x="280" y="180" width="20" height="20" as="geometry" />
        </mxCell>
        <mxCell id="5RoPjCUc7wu4f7_gC1kw-78" value="" style="endArrow=classic;html=1;rounded=0;" parent="1" edge="1">
          <mxGeometry width="50" height="50" relative="1" as="geometry">
            <mxPoint x="260" y="210" as="sourcePoint" />
            <mxPoint x="260" y="230" as="targetPoint" />
          </mxGeometry>
        </mxCell>
        <mxCell id="5RoPjCUc7wu4f7_gC1kw-79" value="A" style="rounded=0;whiteSpace=wrap;html=1;fillColor=#d5e8d4;strokeColor=#82b366;" parent="1" vertex="1">
          <mxGeometry x="40" y="420" width="20" height="20" as="geometry" />
        </mxCell>
        <mxCell id="5RoPjCUc7wu4f7_gC1kw-80" value="-1" style="rounded=0;whiteSpace=wrap;html=1;fillColor=#f8cecc;strokeColor=#b85450;" parent="1" vertex="1">
          <mxGeometry x="60" y="400" width="20" height="20" as="geometry" />
        </mxCell>
        <mxCell id="5RoPjCUc7wu4f7_gC1kw-81" value="&lt;b&gt;0&lt;/b&gt;" style="rounded=0;whiteSpace=wrap;html=1;fillStyle=solid;fillColor=#CCCCCC;" parent="1" vertex="1">
          <mxGeometry x="100" y="400" width="20" height="20" as="geometry" />
        </mxCell>
        <mxCell id="5RoPjCUc7wu4f7_gC1kw-82" value="-2" style="rounded=0;whiteSpace=wrap;html=1;fillColor=#d5e8d4;strokeColor=#82b366;" parent="1" vertex="1">
          <mxGeometry x="120" y="420" width="20" height="20" as="geometry" />
        </mxCell>
        <mxCell id="5RoPjCUc7wu4f7_gC1kw-83" value="1" style="rounded=0;whiteSpace=wrap;html=1;fillColor=#f8cecc;strokeColor=#b85450;" parent="1" vertex="1">
          <mxGeometry x="80" y="400" width="20" height="20" as="geometry" />
        </mxCell>
        <mxCell id="5RoPjCUc7wu4f7_gC1kw-84" value="&lt;b&gt;0&lt;/b&gt;" style="rounded=0;whiteSpace=wrap;html=1;fillStyle=solid;fillColor=#CCCCCC;" parent="1" vertex="1">
          <mxGeometry x="160" y="420" width="20" height="20" as="geometry" />
        </mxCell>
        <mxCell id="5RoPjCUc7wu4f7_gC1kw-85" value="1" style="rounded=0;whiteSpace=wrap;html=1;fillColor=#d5e8d4;strokeColor=#82b366;" parent="1" vertex="1">
          <mxGeometry x="140" y="420" width="20" height="20" as="geometry" />
        </mxCell>
        <mxCell id="5RoPjCUc7wu4f7_gC1kw-86" value="A" style="rounded=0;whiteSpace=wrap;html=1;fillColor=#d5e8d4;strokeColor=#82b366;" parent="1" vertex="1">
          <mxGeometry x="40" y="340" width="20" height="20" as="geometry" />
        </mxCell>
        <mxCell id="5RoPjCUc7wu4f7_gC1kw-87" value="0" style="rounded=0;whiteSpace=wrap;html=1;fillColor=#f8cecc;strokeColor=#b85450;" parent="1" vertex="1">
          <mxGeometry x="60" y="320" width="20" height="20" as="geometry" />
        </mxCell>
        <mxCell id="5RoPjCUc7wu4f7_gC1kw-88" value="0" style="rounded=0;whiteSpace=wrap;html=1;fillColor=#d5e8d4;strokeColor=#82b366;" parent="1" vertex="1">
          <mxGeometry x="80" y="340" width="20" height="20" as="geometry" />
        </mxCell>
        <mxCell id="5RoPjCUc7wu4f7_gC1kw-89" value="" style="endArrow=classic;html=1;rounded=0;" parent="1" edge="1">
          <mxGeometry width="50" height="50" relative="1" as="geometry">
            <mxPoint x="60" y="370" as="sourcePoint" />
            <mxPoint x="60" y="390" as="targetPoint" />
          </mxGeometry>
        </mxCell>
        <mxCell id="5RoPjCUc7wu4f7_gC1kw-90" value="A" style="rounded=0;whiteSpace=wrap;html=1;fillColor=#d5e8d4;strokeColor=#82b366;" parent="1" vertex="1">
          <mxGeometry x="240" y="420" width="20" height="20" as="geometry" />
        </mxCell>
        <mxCell id="5RoPjCUc7wu4f7_gC1kw-91" value="-1" style="rounded=0;whiteSpace=wrap;html=1;fillColor=#f8cecc;strokeColor=#b85450;" parent="1" vertex="1">
          <mxGeometry x="260" y="400" width="20" height="20" as="geometry" />
        </mxCell>
        <mxCell id="5RoPjCUc7wu4f7_gC1kw-92" value="&lt;b&gt;0&lt;/b&gt;" style="rounded=0;whiteSpace=wrap;html=1;fillStyle=solid;fillColor=#CCCCCC;" parent="1" vertex="1">
          <mxGeometry x="300" y="400" width="20" height="20" as="geometry" />
        </mxCell>
        <mxCell id="5RoPjCUc7wu4f7_gC1kw-93" value="-2" style="rounded=0;whiteSpace=wrap;html=1;fillColor=#d5e8d4;strokeColor=#82b366;" parent="1" vertex="1">
          <mxGeometry x="320" y="420" width="20" height="20" as="geometry" />
        </mxCell>
        <mxCell id="5RoPjCUc7wu4f7_gC1kw-94" value="1" style="rounded=0;whiteSpace=wrap;html=1;fillColor=#f8cecc;strokeColor=#b85450;" parent="1" vertex="1">
          <mxGeometry x="280" y="400" width="20" height="20" as="geometry" />
        </mxCell>
        <mxCell id="5RoPjCUc7wu4f7_gC1kw-97" value="A" style="rounded=0;whiteSpace=wrap;html=1;fillColor=#d5e8d4;strokeColor=#82b366;" parent="1" vertex="1">
          <mxGeometry x="240" y="340" width="20" height="20" as="geometry" />
        </mxCell>
        <mxCell id="5RoPjCUc7wu4f7_gC1kw-98" value="0" style="rounded=0;whiteSpace=wrap;html=1;fillColor=#f8cecc;strokeColor=#b85450;" parent="1" vertex="1">
          <mxGeometry x="260" y="320" width="20" height="20" as="geometry" />
        </mxCell>
        <mxCell id="5RoPjCUc7wu4f7_gC1kw-99" value="0" style="rounded=0;whiteSpace=wrap;html=1;fillColor=#d5e8d4;strokeColor=#82b366;" parent="1" vertex="1">
          <mxGeometry x="280" y="340" width="20" height="20" as="geometry" />
        </mxCell>
        <mxCell id="5RoPjCUc7wu4f7_gC1kw-100" value="" style="endArrow=classic;html=1;rounded=0;" parent="1" edge="1">
          <mxGeometry width="50" height="50" relative="1" as="geometry">
            <mxPoint x="260" y="370" as="sourcePoint" />
            <mxPoint x="260" y="390" as="targetPoint" />
          </mxGeometry>
        </mxCell>
        <mxCell id="5RoPjCUc7wu4f7_gC1kw-101" value="0" style="rounded=0;whiteSpace=wrap;html=1;fillColor=#f8cecc;strokeColor=#b85450;" parent="1" vertex="1">
          <mxGeometry x="300" y="320" width="20" height="20" as="geometry" />
        </mxCell>
        <mxCell id="5RoPjCUc7wu4f7_gC1kw-102" value="0" style="rounded=0;whiteSpace=wrap;html=1;fillColor=#d5e8d4;strokeColor=#82b366;" parent="1" vertex="1">
          <mxGeometry x="320" y="340" width="20" height="20" as="geometry" />
        </mxCell>
        <mxCell id="5RoPjCUc7wu4f7_gC1kw-103" value="-1" style="rounded=0;whiteSpace=wrap;html=1;fillColor=#f8cecc;strokeColor=#b85450;" parent="1" vertex="1">
          <mxGeometry x="340" y="400" width="20" height="20" as="geometry" />
        </mxCell>
        <mxCell id="5RoPjCUc7wu4f7_gC1kw-104" value="&lt;b&gt;0&lt;/b&gt;" style="rounded=0;whiteSpace=wrap;html=1;fillStyle=solid;fillColor=#CCCCCC;" parent="1" vertex="1">
          <mxGeometry x="380" y="400" width="20" height="20" as="geometry" />
        </mxCell>
        <mxCell id="5RoPjCUc7wu4f7_gC1kw-105" value="1" style="rounded=0;whiteSpace=wrap;html=1;fillColor=#d5e8d4;strokeColor=#82b366;" parent="1" vertex="1">
          <mxGeometry x="400" y="420" width="20" height="20" as="geometry" />
        </mxCell>
        <mxCell id="5RoPjCUc7wu4f7_gC1kw-106" value="1" style="rounded=0;whiteSpace=wrap;html=1;fillColor=#f8cecc;strokeColor=#b85450;" parent="1" vertex="1">
          <mxGeometry x="360" y="400" width="20" height="20" as="geometry" />
        </mxCell>
        <mxCell id="5RoPjCUc7wu4f7_gC1kw-107" value="&lt;b&gt;0&lt;/b&gt;" style="rounded=0;whiteSpace=wrap;html=1;fillStyle=solid;fillColor=#CCCCCC;" parent="1" vertex="1">
          <mxGeometry x="440" y="420" width="20" height="20" as="geometry" />
        </mxCell>
        <mxCell id="5RoPjCUc7wu4f7_gC1kw-108" value="1" style="rounded=0;whiteSpace=wrap;html=1;fillColor=#d5e8d4;strokeColor=#82b366;" parent="1" vertex="1">
          <mxGeometry x="420" y="420" width="20" height="20" as="geometry" />
        </mxCell>
        <mxCell id="5RoPjCUc7wu4f7_gC1kw-109" value="A" style="rounded=0;whiteSpace=wrap;html=1;fillColor=#d5e8d4;strokeColor=#82b366;" parent="1" vertex="1">
          <mxGeometry x="40" y="1080" width="20" height="20" as="geometry" />
        </mxCell>
        <mxCell id="5RoPjCUc7wu4f7_gC1kw-110" value="-1" style="rounded=0;whiteSpace=wrap;html=1;fillColor=#f8cecc;strokeColor=#b85450;" parent="1" vertex="1">
          <mxGeometry x="60" y="1060" width="20" height="20" as="geometry" />
        </mxCell>
        <mxCell id="5RoPjCUc7wu4f7_gC1kw-111" value="&lt;b&gt;0&lt;/b&gt;" style="rounded=0;whiteSpace=wrap;html=1;fillStyle=solid;fillColor=#CCCCCC;" parent="1" vertex="1">
          <mxGeometry x="160" y="1060" width="20" height="20" as="geometry" />
        </mxCell>
        <mxCell id="5RoPjCUc7wu4f7_gC1kw-112" value="-2" style="rounded=0;whiteSpace=wrap;html=1;fillColor=#d5e8d4;strokeColor=#82b366;" parent="1" vertex="1">
          <mxGeometry x="180" y="1080" width="20" height="20" as="geometry" />
        </mxCell>
        <mxCell id="5RoPjCUc7wu4f7_gC1kw-113" value="1" style="rounded=0;whiteSpace=wrap;html=1;fillColor=#f8cecc;strokeColor=#b85450;" parent="1" vertex="1">
          <mxGeometry x="140" y="1060" width="20" height="20" as="geometry" />
        </mxCell>
        <mxCell id="5RoPjCUc7wu4f7_gC1kw-114" value="&lt;b&gt;0&lt;/b&gt;" style="rounded=0;whiteSpace=wrap;html=1;fillStyle=solid;fillColor=#CCCCCC;" parent="1" vertex="1">
          <mxGeometry x="220" y="1080" width="20" height="20" as="geometry" />
        </mxCell>
        <mxCell id="5RoPjCUc7wu4f7_gC1kw-115" value="1" style="rounded=0;whiteSpace=wrap;html=1;fillColor=#d5e8d4;strokeColor=#82b366;" parent="1" vertex="1">
          <mxGeometry x="200" y="1080" width="20" height="20" as="geometry" />
        </mxCell>
        <mxCell id="5RoPjCUc7wu4f7_gC1kw-116" value="A" style="rounded=0;whiteSpace=wrap;html=1;fillColor=#d5e8d4;strokeColor=#82b366;" parent="1" vertex="1">
          <mxGeometry x="40" y="980" width="20" height="20" as="geometry" />
        </mxCell>
        <mxCell id="5RoPjCUc7wu4f7_gC1kw-117" value="0" style="rounded=0;whiteSpace=wrap;html=1;fillColor=#f8cecc;strokeColor=#b85450;" parent="1" vertex="1">
          <mxGeometry x="60" y="960" width="20" height="20" as="geometry" />
        </mxCell>
        <mxCell id="5RoPjCUc7wu4f7_gC1kw-118" value="0" style="rounded=0;whiteSpace=wrap;html=1;fillColor=#d5e8d4;strokeColor=#82b366;" parent="1" vertex="1">
          <mxGeometry x="100" y="980" width="20" height="20" as="geometry" />
        </mxCell>
        <mxCell id="5RoPjCUc7wu4f7_gC1kw-119" value="" style="endArrow=classic;html=1;rounded=0;" parent="1" edge="1">
          <mxGeometry width="50" height="50" relative="1" as="geometry">
            <mxPoint x="60" y="1010" as="sourcePoint" />
            <mxPoint x="60" y="1030" as="targetPoint" />
          </mxGeometry>
        </mxCell>
        <mxCell id="5RoPjCUc7wu4f7_gC1kw-120" value="a" style="rounded=0;whiteSpace=wrap;html=1;fillColor=#dae8fc;strokeColor=#6c8ebf;" parent="1" vertex="1">
          <mxGeometry x="80" y="940" width="20" height="20" as="geometry" />
        </mxCell>
        <mxCell id="5RoPjCUc7wu4f7_gC1kw-121" value="a" style="rounded=0;whiteSpace=wrap;html=1;fillColor=#dae8fc;strokeColor=#6c8ebf;" parent="1" vertex="1">
          <mxGeometry x="80" y="1040" width="20" height="20" as="geometry" />
        </mxCell>
        <mxCell id="5RoPjCUc7wu4f7_gC1kw-122" value="&lt;b&gt;0&lt;/b&gt;" style="rounded=0;whiteSpace=wrap;html=1;fillStyle=solid;fillColor=#CCCCCC;" parent="1" vertex="1">
          <mxGeometry x="120" y="1040" width="20" height="20" as="geometry" />
        </mxCell>
        <mxCell id="5RoPjCUc7wu4f7_gC1kw-123" value="-2" style="rounded=0;whiteSpace=wrap;html=1;fillColor=#dae8fc;strokeColor=#6c8ebf;" parent="1" vertex="1">
          <mxGeometry x="100" y="1040" width="20" height="20" as="geometry" />
        </mxCell>
      </root>
    </mxGraphModel>
  </diagram>
</mxfile>
